<svg xmlns="http://www.w3.org/2000/svg" viewBox="0 0 200 50">
  <defs>
    <linearGradient id="grad" x1="0%" y1="0%" x2="100%" y2="100%">
      <stop offset="0%" style="stop-color:#8B5CF6"/>
      <stop offset="100%" style="stop-color:#F472B6"/>
    </linearGradient>
  </defs>
  <!-- Tooth icon background -->
  <rect x="2" y="5" width="40" height="40" rx="10" fill="url(#grad)"/>
  <!-- Smiling tooth -->
  <path d="M22 12 C14 12 10 18 10 26 C10 32 12 38 15 38 C17 38 18 34 19 30 C19.5 28 20.5 28 22 28 C23.5 28 24.5 28 25 30 C26 34 27 38 29 38 C32 38 34 32 34 26 C34 18 30 12 22 12 Z" fill="white"/>
  <!-- Eyes -->
  <circle cx="18" cy="22" r="2" fill="#8B5CF6"/>
  <circle cx="26" cy="22" r="2" fill="#8B5CF6"/>
  <!-- Smile -->
  <path d="M17 27 Q22 31 27 27" stroke="#F472B6" stroke-width="2" fill="none" stroke-linecap="round"/>
  <!-- Text -->
  <text x="50" y="28" font-family="Nunito, sans-serif" font-weight="800" font-size="20" fill="#8B5CF6">Happy</text>
  <text x="110" y="28" font-family="Nunito, sans-serif" font-weight="800" font-size="20" fill="#F472B6">Smiles</text>
  <!-- Tagline -->
  <text x="50" y="42" font-family="Nunito, sans-serif" font-weight="600" font-size="8" fill="#94A3B8">PEDIATRIC DENTISTRY</text>
</svg>
